<?xml version="1.0" encoding="UTF-8"?>
<svg version="1.1" xmlns="http://www.w3.org/2000/svg" width="210" height="212">
<path d="M0 0 C0.84519196 -0.00807175 1.69038391 -0.01614349 2.56118774 -0.02445984 C4.35148087 -0.03826458 6.14179991 -0.04900281 7.93212891 -0.05688477 C9.73559462 -0.06832767 11.53902858 -0.08865529 13.34228516 -0.1184082 C25.03384105 -0.31093704 35.17256113 0.42168061 46.2890625 4.23828125 C47.04558105 4.49520752 47.80209961 4.75213379 48.58154297 5.0168457 C75.16898163 14.77728058 95.57509866 35.93728401 107.5 61.1796875 C114.05459321 75.66860536 116.68624946 89.93004418 116.6640625 105.80078125 C116.66351868 106.45958282 116.66297485 107.1183844 116.66241455 107.79714966 C116.6209574 118.74963123 115.74427063 128.83321385 112.2890625 139.23828125 C112.07475586 139.88748535 111.86044922 140.53668945 111.63964844 141.20556641 C101.98416845 169.3919785 81.86830203 191.40282857 55.25585938 204.55566406 C44.72907507 209.54391277 34.19266778 212.369597 22.578125 212.4765625 C21.73293304 212.48463425 20.88774109 212.49270599 20.01693726 212.50102234 C18.22664413 212.51482708 16.43632509 212.52556531 14.64599609 212.53344727 C12.84253038 212.54489017 11.03909642 212.56521779 9.23583984 212.5949707 C-2.45571605 212.78749954 -12.59443613 212.05488189 -23.7109375 208.23828125 C-24.46745605 207.98135498 -25.22397461 207.72442871 -26.00341797 207.4597168 C-52.59664445 197.69715717 -72.96162672 176.54661298 -84.91796875 151.3203125 C-91.169445 137.51400182 -92.96578196 124.89245023 -93.06103516 109.90551758 C-93.0774348 108.02550744 -93.10450705 106.14555535 -93.14306641 104.26586914 C-93.5459913 84.46123489 -89.43965873 68.45951245 -79.7109375 51.23828125 C-79.15535156 50.24183594 -78.59976563 49.24539062 -78.02734375 48.21875 C-64.09042386 24.8568627 -39.84281875 7.92401703 -13.7109375 1.23828125 C-9.13369941 0.0998655 -4.68887581 0.04318275 0 0 Z " fill="#FCFBFB" transform="translate(92.7109375,-0.23828125)"/>
<path d="M0 0 C0.84519196 -0.00807175 1.69038391 -0.01614349 2.56118774 -0.02445984 C4.35148087 -0.03826458 6.14179991 -0.04900281 7.93212891 -0.05688477 C9.73559462 -0.06832767 11.53902858 -0.08865529 13.34228516 -0.1184082 C25.03384105 -0.31093704 35.17256113 0.42168061 46.2890625 4.23828125 C47.04558105 4.49520752 47.80209961 4.75213379 48.58154297 5.0168457 C70.87646877 13.20146906 88.57879127 29.57227918 101.2890625 49.23828125 C101.9490625 50.22828125 102.6090625 51.21828125 103.2890625 52.23828125 C103.2890625 53.22828125 103.2890625 54.21828125 103.2890625 55.23828125 C97.70763373 54.74868224 92.33958319 53.87929975 86.8515625 52.73828125 C55.38644595 46.31257836 23.27247844 52.87702906 -7.95703125 57.93359375 C-8.68189224 58.05017334 -9.40675323 58.16675293 -10.15357971 58.28686523 C-14.01237989 58.91704915 -14.01237989 58.91704915 -17.81689453 59.80712891 C-22.75852047 60.93202081 -28.1068763 60.46737275 -33.1484375 60.48828125 C-34.96118164 60.51921875 -34.96118164 60.51921875 -36.81054688 60.55078125 C-49.41461925 60.60478906 -59.72312831 58.22408421 -70.73828125 52.25 C-73.71111137 50.98904202 -73.71111137 50.98904202 -76.96484375 51.6953125 C-79.91710198 52.99603952 -79.91710198 52.99603952 -80.8984375 55.8828125 C-81.1665625 56.99011719 -81.4346875 58.09742188 -81.7109375 59.23828125 C-82.17020945 60.49961025 -82.65045188 61.75344799 -83.1484375 63 C-83.53128906 63.96583008 -83.53128906 63.96583008 -83.921875 64.95117188 C-84.18226562 65.60279297 -84.44265625 66.25441406 -84.7109375 66.92578125 C-84.97132812 67.58900391 -85.23171875 68.25222656 -85.5 68.93554688 C-86.70029941 71.94538859 -87.90582496 74.53061244 -89.7109375 77.23828125 C-89.16741276 71.97288529 -87.87987472 67.52046162 -85.7109375 62.67578125 C-85.2473584 61.63695801 -85.2473584 61.63695801 -84.77441406 60.57714844 C-73.03837179 35.0928386 -52.25961552 16.4908684 -26.7109375 5.23828125 C-17.73359118 2.0188862 -9.50374883 0.08752589 0 0 Z " fill="#DC0704" transform="translate(92.7109375,-0.23828125)"/>
<path d="M0 0 C2.58253564 3.87380345 4.05040054 8.05175232 5.70117188 12.375 C6.43622765 14.26245781 7.21727151 16.13180834 8 18 C8.33386719 18.93457031 8.66773438 19.86914062 9.01171875 20.83203125 C12.4328469 24.56233798 17.02301166 24.63120738 21.875 25.3125 C22.98488281 25.47492188 24.09476563 25.63734375 25.23828125 25.8046875 C56.30525487 29.92617006 87.18637693 25.00902602 117.8125 19.83203125 C127.00078392 18.32627574 135.93299368 17.79164025 145.25 17.75 C146.95736328 17.7190625 146.95736328 17.7190625 148.69921875 17.6875 C159.72180568 17.6374542 169.73788415 20.04499474 180.125 23.5625 C181.36507812 23.97628906 182.60515625 24.39007813 183.8828125 24.81640625 C187 26 187 26 190 28 C183.485063 46.83593184 162.07362627 60.86256656 144.96679688 69.31738281 C134.44001257 74.30563152 123.90360528 77.13131575 112.2890625 77.23828125 C111.44387054 77.246353 110.59867859 77.25442474 109.72787476 77.26274109 C107.93758163 77.27654583 106.14726259 77.28728406 104.35693359 77.29516602 C102.55346788 77.30660892 100.75003392 77.32693654 98.94677734 77.35668945 C87.25522145 77.54921829 77.11650137 76.81660064 66 73 C65.24348145 72.74307373 64.48696289 72.48614746 63.70751953 72.22143555 C36.79713026 62.34244324 16.98116283 41.14693559 4.7265625 15.82421875 C0 5.60797835 0 5.60797835 0 0 Z " fill="#080560" transform="translate(3,135)"/>
<path d="M0 0 C1.17175781 -0.00386719 2.34351563 -0.00773437 3.55078125 -0.01171875 C5.36642578 0.00568359 5.36642578 0.00568359 7.21875 0.0234375 C8.42917969 0.01183594 9.63960937 0.00023438 10.88671875 -0.01171875 C12.64435547 -0.00591797 12.64435547 -0.00591797 14.4375 0 C15.49904297 0.00338379 16.56058594 0.00676758 17.65429688 0.01025391 C22.455493 0.61843602 25.71665 2.34216993 29.03125 5.8359375 C33.97828767 13.34810582 32.45654025 26.3419653 31.03125 34.9609375 C29.66415068 40.64264106 26.91022805 45.40032516 22.59375 49.3359375 C17.19945857 52.39270264 11.08561032 51.73321504 5.05957031 51.8034668 C3.67259765 51.82500666 2.28575947 51.85906377 0.89941406 51.90600586 C-12.08949213 52.34113731 -12.08949213 52.34113731 -16.64453125 48.59375 C-21.4143127 43.66805278 -21.39219261 37.63703504 -21.59375 31.1484375 C-21.39605942 21.10110426 -19.54693604 10.85407612 -12.28125 3.3984375 C-8.03054993 0.91304298 -4.90798998 0.01564478 0 0 Z " fill="#0B0863" transform="translate(90.28125,80.6015625)"/>
<path d="M0 0 C5.28357911 -0.07448116 10.56684863 -0.12875795 15.85083008 -0.16479492 C17.64613167 -0.17982716 19.44139688 -0.20025857 21.23657227 -0.22631836 C23.82577526 -0.26294786 26.41449028 -0.2797821 29.00390625 -0.29296875 C30.19651817 -0.31619453 30.19651817 -0.31619453 31.41322327 -0.33988953 C36.69301374 -0.34146315 40.31925352 0.50707814 45 3 C48.0603872 6.2958016 49.25232707 8.8914962 49.4375 13.3125 C49.15358991 18.74342522 48.24390969 24.34986528 44.640625 28.60546875 C39.91235067 32.7609882 35.45760479 34.26157866 29.26171875 34.1953125 C27.66166992 34.18564453 27.66166992 34.18564453 26.02929688 34.17578125 C24.92650391 34.15902344 23.82371094 34.14226562 22.6875 34.125 C21.56537109 34.11597656 20.44324219 34.10695312 19.28710938 34.09765625 C16.52464783 34.07414594 13.7622964 34.03827662 11 34 C10.67 38.95 10.34 43.9 10 49 C5.38 49 0.76 49 -4 49 C-4.08171506 42.41683082 -3.83907072 36.03315094 -3.125 29.4921875 C-3.03621582 28.64069122 -2.94743164 27.78919495 -2.85595703 26.91189575 C-2.57546436 24.23239588 -2.28786784 21.55371648 -2 18.875 C-1.80681808 17.04171651 -1.61410565 15.20838348 -1.421875 13.375 C-0.95333267 8.91607659 -0.47842455 4.45787346 0 0 Z " fill="#080461" transform="translate(18,82)"/>
<path d="M0 0 C0.83496002 0.00424484 1.66992004 0.00848969 2.53018188 0.01286316 C5.17931285 0.02956542 7.8276641 0.067201 10.4765625 0.10546875 C12.27993688 0.12052655 14.08332326 0.13421304 15.88671875 0.14648438 C20.291964 0.17944113 24.69663136 0.23116406 29.1015625 0.29296875 C28.7715625 4.25296875 28.4415625 8.21296875 28.1015625 12.29296875 C27.11760498 12.29707764 26.13364746 12.30118652 25.11987305 12.30541992 C21.46846155 12.32719537 17.81813017 12.38146595 14.16723633 12.44555664 C12.58726353 12.46875099 11.0071358 12.48313579 9.42700195 12.48852539 C7.15477811 12.4978056 4.88499535 12.53876622 2.61328125 12.5859375 C1.90693039 12.58200485 1.20057953 12.5780722 0.4728241 12.57402039 C-1.77310821 12.58647239 -1.77310821 12.58647239 -4.8984375 13.29296875 C-8.69840214 18.07265314 -9.03792129 22.53487185 -9.0234375 28.48046875 C-9.02601563 29.54652344 -9.02859375 30.61257812 -9.03125 31.7109375 C-9.19102722 34.22366223 -9.19102722 34.22366223 -7.8984375 35.29296875 C-6.33895208 35.44983124 -4.77301082 35.54373514 -3.20703125 35.609375 C-1.79067383 35.6722168 -1.79067383 35.6722168 -0.34570312 35.73632812 C0.64751953 35.77564453 1.64074219 35.81496094 2.6640625 35.85546875 C4.15969727 35.92024414 4.15969727 35.92024414 5.68554688 35.98632812 C8.15737361 36.09277042 10.6294491 36.19340634 13.1015625 36.29296875 C13.4315625 31.67296875 13.7615625 27.05296875 14.1015625 22.29296875 C18.3915625 22.29296875 22.6815625 22.29296875 27.1015625 22.29296875 C26.79358684 26.23087113 26.48038719 30.16823594 26.1640625 34.10546875 C26.07705078 35.22501953 25.99003906 36.34457031 25.90039062 37.49804688 C25.81337891 38.57119141 25.72636719 39.64433594 25.63671875 40.75 C25.51889038 42.23463745 25.51889038 42.23463745 25.39868164 43.74926758 C25.1015625 46.29296875 25.1015625 46.29296875 24.1015625 49.29296875 C18.94208904 49.36737323 13.78293099 49.42169066 8.62304688 49.45776367 C6.86941077 49.4728087 5.11581203 49.49324979 3.36230469 49.51928711 C0.83519241 49.55585996 -1.69142046 49.57273795 -4.21875 49.5859375 C-5.38629318 49.60916328 -5.38629318 49.60916328 -6.5774231 49.63285828 C-11.4285348 49.63434309 -14.68433427 48.95132636 -18.8984375 46.29296875 C-23.42370772 41.32345404 -23.50096665 36.93144384 -23.3359375 30.54296875 C-23.32199951 29.65134033 -23.30806152 28.75971191 -23.29370117 27.84106445 C-23.04667946 19.04403381 -21.56888002 12.04339017 -16.47265625 4.765625 C-11.51099942 0.12407506 -6.39730613 -0.12378221 0 0 Z " fill="#090662" transform="translate(147.8984375,81.70703125)"/>
<path d="M0 0 C4.95 0 9.9 0 15 0 C13.75466942 16.39441075 12.06643709 32.68892326 10 49 C5.38 49 0.76 49 -4 49 C-4.27511147 38.44259742 -3.20077315 28.21647067 -2 17.75 C-1.8066891 16.02220273 -1.61397636 14.29433842 -1.421875 12.56640625 C-0.9548013 8.37680032 -0.47966991 4.18818169 0 0 Z " fill="#0A0762" transform="translate(181,82)"/>
<path d="M0 0 C0.78052734 0.00322266 1.56105469 0.00644531 2.36523438 0.00976562 C3.53022461 -0.0144043 3.53022461 -0.0144043 4.71875 -0.0390625 C10.45791815 -0.0440058 10.45791815 -0.0440058 12.64916992 1.66430664 C15.6140118 5.50892019 14.34189067 11.73341384 13.92773438 16.32226562 C12.89287228 20.53915268 11.63569757 22.85029016 7.92773438 25.32226562 C5.21488567 25.54354672 2.63854052 25.64682437 -0.07226562 25.63476562 C-1.15894531 25.65893555 -1.15894531 25.65893555 -2.26757812 25.68359375 C-5.15845511 25.68626061 -7.48625426 25.64654069 -10.04882812 24.22851562 C-11.61422251 21.31281922 -11.46825671 18.7948712 -11.44726562 15.50976562 C-11.455 14.30707031 -11.46273437 13.104375 -11.47070312 11.86523438 C-10.59109776 4.04364553 -7.93100056 0.07527265 0 0 Z " fill="#FAFAFB" transform="translate(94.072265625,93.677734375)"/>
<path d="M0 0 C1.45713074 -0.01143037 2.91422264 -0.03173764 4.37109375 -0.06152344 C29.50533336 -0.5735331 52.51536784 9.39736383 70.77709961 26.72290039 C73.99709056 29.86053349 77.14718675 33.06319577 80.2722168 36.29516602 C79.9422168 36.95516602 79.6122168 37.61516602 79.2722168 38.29516602 C78.71276367 37.68930664 78.15331055 37.08344727 77.5769043 36.45922852 C58.08231458 16.08706885 32.58868468 4.58018261 4.4284668 3.09204102 C-27.3814297 2.68422183 -53.48835882 14.75761867 -76.7277832 36.29516602 C-76.7277832 32.2493004 -75.365414 31.49978828 -72.5402832 28.67016602 C-52.68901405 9.56747824 -27.29293959 0.14824898 0 0 Z " fill="#ECE8E8" transform="translate(104.727783203125,-0.295166015625)"/>
<path d="M0 0 C0 0.33 0 0.66 0 1 C-1.11375 1.20753906 -2.2275 1.41507812 -3.375 1.62890625 C-14.32980453 3.79254965 -24.00268199 7.05425159 -34 12 C-35.00804687 12.4846875 -36.01609375 12.969375 -37.0546875 13.46875 C-46.52989051 18.30029828 -56.43360337 25.51324209 -63 34 C-63.34702855 35.3298346 -63.67993749 36.66341896 -64 38 C-65.78847069 40.82543415 -67.9068844 43.39448197 -70 46 C-70.82177734 47.02673828 -70.82177734 47.02673828 -71.66015625 48.07421875 C-74.66201101 51.71037205 -74.66201101 51.71037205 -76 53 C-76.66 53 -77.32 53 -78 53 C-78.268125 53.83144531 -78.53625 54.66289063 -78.8125 55.51953125 C-80.09957499 59.29184644 -81.5213624 62.987246 -83 66.6875 C-83.26039062 67.35072266 -83.52078125 68.01394531 -83.7890625 68.69726562 C-84.98936191 71.70710734 -86.19488746 74.29233119 -88 77 C-87.45647526 71.73460404 -86.16893722 67.28218037 -84 62.4375 C-83.5364209 61.39867676 -83.5364209 61.39867676 -83.06347656 60.33886719 C-71.32743429 34.85455735 -50.54867802 16.25258715 -25 5 C-16.6507589 2.00585178 -8.90015443 -0.17451283 0 0 Z " fill="#0A0A0A" transform="translate(91,0)"/>
<path d="M0 0 C22.08450175 -1.48052526 42.71345431 9.08188873 59.4296875 22.734375 C64.18258065 26.92385529 68.59786439 31.44722097 73 36 C72.505 36.99 72.505 36.99 72 38 C71.44054687 37.39414062 70.88109375 36.78828125 70.3046875 36.1640625 C51.97623816 17.01053827 27.60022404 4.86861078 1 3 C0.67 2.01 0.34 1.02 0 0 Z " fill="#B5A6A6" transform="translate(112,0)"/>
<path d="M0 0 C1.39895508 -0.01836914 1.39895508 -0.01836914 2.82617188 -0.03710938 C4.16325195 -0.04000977 4.16325195 -0.04000977 5.52734375 -0.04296875 C6.348396 -0.04707764 7.16944824 -0.05118652 8.01538086 -0.05541992 C10.0625 0.1875 10.0625 0.1875 12.0625 2.1875 C12.375 4.6875 12.375 4.6875 12.0625 7.1875 C8.85843538 9.32354308 8.06649253 9.42958908 4.39453125 9.3828125 C3.50185547 9.37636719 2.60917969 9.36992188 1.68945312 9.36328125 C0.29629883 9.33814453 0.29629883 9.33814453 -1.125 9.3125 C-2.06537109 9.30347656 -3.00574219 9.29445313 -3.97460938 9.28515625 C-6.29582968 9.26159056 -8.61653644 9.22869116 -10.9375 9.1875 C-11.03515625 3.03515625 -11.03515625 3.03515625 -10.9375 1.1875 C-8.63740227 -1.11259773 -3.08959334 0.00212635 0 0 Z " fill="#F2F2F5" transform="translate(41.9375,93.8125)"/>
<path d="M0 0 C0.99 0.495 0.99 0.495 2 1 C-14.74780499 13.09563694 -32.13288124 19.18595434 -52.70727539 19.24023438 C-54.89965329 19.24983428 -57.09104904 19.28084077 -59.28320312 19.3125 C-68.60522923 19.38046611 -76.93620677 18.38298599 -86 16 C-86 15.67 -86 15.34 -86 15 C-84.35405757 15.14459681 -82.70825269 15.29075936 -81.0625 15.4375 C-80.04671875 15.52773437 -79.0309375 15.61796875 -77.984375 15.7109375 C-75.58100516 15.94372463 -73.20417801 16.23804756 -70.8125 16.5625 C-45.69528043 19.3383781 -22.58925131 13.68106509 -1 1 C-0.67 0.67 -0.34 0.34 0 0 Z " fill="#909099" transform="translate(163,193)"/>
<path d="M0 0 C0.66 0.66 1.32 1.32 2 2 C-6.45823854 13.03574911 -6.45823854 13.03574911 -11 18 C-11.66 18 -12.32 18 -13 18 C-13.268125 18.83144531 -13.53625 19.66289063 -13.8125 20.51953125 C-15.09957499 24.29184644 -16.5213624 27.987246 -18 31.6875 C-18.26039062 32.35072266 -18.52078125 33.01394531 -18.7890625 33.69726562 C-19.98936191 36.70710734 -21.19488746 39.29233119 -23 42 C-22.45644421 36.73430332 -21.16808137 32.28277416 -19 27.4375 C-18.69457275 26.75002686 -18.38914551 26.06255371 -18.07446289 25.35424805 C-13.63383967 15.68165836 -8.51502481 6.58478963 0 0 Z " fill="#5E5959" transform="translate(26,35)"/>
<path d="M0 0 C0.60956543 0.19182861 1.21913086 0.38365723 1.84716797 0.58129883 C0.79658203 1.35473633 -0.25400391 2.12817383 -1.33642578 2.92504883 C-8.89830012 8.52443673 -16.30364757 14.11262461 -23.15283203 20.58129883 C-23.15283203 17.58129883 -23.15283203 17.58129883 -21.35205078 15.38208008 C-4.86916736 -0.94699728 -4.86916736 -0.94699728 0 0 Z " fill="#E1D3D3" transform="translate(51.15283203125,15.418701171875)"/>
<path d="M0 0 C11.70326423 2.0353503 20.0800461 12.80902106 28 21 C27.67 21.66 27.34 22.32 27 23 C26.44054687 22.39414062 25.88109375 21.78828125 25.3046875 21.1640625 C19.3359678 14.92665446 13.10850708 9.98615378 6.00390625 5.12890625 C3.72813768 3.51604036 1.84838194 2.06038274 0 0 Z " fill="#CEC0C0" transform="translate(157,15)"/>
<path d="M0 0 C6.1512996 -0.50049944 9.98667078 1.00717837 15.375 3.875 C16.45974609 4.42220703 16.45974609 4.42220703 17.56640625 4.98046875 C22.85439712 7.70879425 22.85439712 7.70879425 24 10 C18.38586154 9.63386054 14.40245969 7.89235259 9.4453125 5.27734375 C6.36084237 3.66612693 3.21482334 2.32786182 0 1 C0 0.67 0 0.34 0 0 Z " fill="#AEA1A1" transform="translate(137,6)"/>
<path d="M0 0 C2.58253564 3.87380345 4.05040054 8.05175232 5.70117188 12.375 C7.1687408 16.1433867 8.64799103 19.69598741 11 23 C13.59122743 23.88658466 13.59122743 23.88658466 16 24 C15.34 24.66 14.68 25.32 14 26 C13.83312552 28.58354218 13.83312552 28.58354218 14 31 C11.82746853 28.9824845 10.38138865 27.13914838 9.0625 24.48828125 C8.72476562 23.81216797 8.38703125 23.13605469 8.0390625 22.43945312 C7.69617188 21.73755859 7.35328125 21.03566406 7 20.3125 C6.65710938 19.62994141 6.31421875 18.94738281 5.9609375 18.24414062 C0 6.19713144 0 6.19713144 0 0 Z " fill="#030310" transform="translate(3,135)"/>
<path d="M0 0 C1.93719378 -0.05406122 3.87481921 -0.09282025 5.8125 -0.125 C6.89144531 -0.14820312 7.97039062 -0.17140625 9.08203125 -0.1953125 C12 -0 12 -0 15 2 C15 2.66 15 3.32 15 4 C8.07 3.505 8.07 3.505 1 3 C0.67 2.01 0.34 1.02 0 0 Z " fill="#BBADAD" transform="translate(112,0)"/>
<path d="M0 0 C0 0.66 0 1.32 0 2 C-6.435 4.97 -6.435 4.97 -13 8 C-13.66 7.34 -14.32 6.68 -15 6 C-13.06629769 4.99267601 -11.12789694 3.99436712 -9.1875 3 C-8.10855469 2.443125 -7.02960937 1.88625 -5.91796875 1.3125 C-3 0 -3 0 0 0 Z " fill="#E8E3E2" transform="translate(66,8)"/>
<path d="M0 0 C4.44926052 0.41314562 6.84100104 3.50461527 9.75 6.5625 C10.25660156 7.08263672 10.76320312 7.60277344 11.28515625 8.13867188 C12.53034405 9.41910084 13.76611502 10.70867554 15 12 C14.67 12.66 14.34 13.32 14 14 C9.33333333 9.33333333 4.66666667 4.66666667 0 0 Z " fill="#DACBCB" transform="translate(170,24)"/>
<path d="M0 0 C1.07765625 0.11988281 2.1553125 0.23976562 3.265625 0.36328125 C4.08546875 0.47027344 4.9053125 0.57726562 5.75 0.6875 C5.75 1.0175 5.75 1.3475 5.75 1.6875 C-2.17 2.1825 -2.17 2.1825 -10.25 2.6875 C-5.79547969 -0.65339023 -5.20185771 -0.62196125 0 0 Z " fill="#EBD8D8" transform="translate(91.25,1.3125)"/>
<path d="M0 0 C0 0.66 0 1.32 0 2 C-9.41002278 4.29612756 -9.41002278 4.29612756 -14 4 C-12.68 3.67 -11.36 3.34 -10 3 C-10 2.34 -10 1.68 -10 1 C-6.59437148 0.22157062 -3.49234244 -0.09978121 0 0 Z " fill="#525258" transform="translate(133,208)"/>
<path d="M0 0 C6.625 -0.25 6.625 -0.25 10 2 C10 2.66 10 3.32 10 4 C8.51882199 3.71872579 7.04006751 3.42466268 5.5625 3.125 C4.73878906 2.96257813 3.91507813 2.80015625 3.06640625 2.6328125 C2.38449219 2.42398437 1.70257813 2.21515625 1 2 C0.67 1.34 0.34 0.68 0 0 Z " fill="#CDC2C2" transform="translate(137,6)"/>
<path d="M0 0 C0 0.66 0 1.32 0 2 C-2.97 2.66 -5.94 3.32 -9 4 C-9 3.34 -9 2.68 -9 2 C-9.66 1.67 -10.32 1.34 -11 1 C-3.57142857 -1.42857143 -3.57142857 -1.42857143 0 0 Z " fill="#D8C7C7" transform="translate(84,3)"/>
<path d="M0 0 C1.258125 0.12375 2.51625 0.2475 3.8125 0.375 C4.87404297 0.47941406 4.87404297 0.47941406 5.95703125 0.5859375 C8 1 8 1 11 3 C6.545 3.495 6.545 3.495 2 4 C2 3.01 2 2.02 2 1 C1.34 0.67 0.68 0.34 0 0 Z " fill="#746B6B" transform="translate(125,1)"/>
<path d="M0 0 C0.66 0.33 1.32 0.66 2 1 C-0.31 3.31 -2.62 5.62 -5 8 C-5 5 -5 5 -2.5 2.3125 C-1.675 1.549375 -0.85 0.78625 0 0 Z " fill="#100F62" transform="translate(135,84)"/>
<path d="M0 0 C0.86625 0.3403125 0.86625 0.3403125 1.75 0.6875 C0 2.25 0 2.25 -2.25 3.6875 C-4.5 3.375 -4.5 3.375 -6.25 2.6875 C-2.80384615 -0.38942308 -2.80384615 -0.38942308 0 0 Z " fill="#D9D2D2" transform="translate(51.25,15.3125)"/>
</svg>
